<svg xmlns="http://www.w3.org/2000/svg" viewBox="0 0 900 600">
  <rect width="900" height="600" fill="#CD1126"/>
  <!-- Gold Star -->
  <polygon points="180,60 191,95 228,95 198,116 209,151 180,130 151,151 162,116 132,95 169,95" fill="#FFDE00"/>
  <!-- Hammer and Sickle -->
  <g fill="#FFDE00">
    <path d="M 235 155 C 290 170 300 270 215 310 C 190 320 160 310 140 290 C 135 285 145 275 152 280 C 175 300 210 290 230 260 C 250 230 240 185 195 170 Z"/>
    <path d="M 135 305 L 255 175 L 270 190 L 150 320 Z"/>
    <path d="M 245 165 L 280 200 L 265 215 L 230 180 Z"/>
    <rect x="120" y="300" width="22" height="60" rx="4" transform="rotate(45 130 330)"/>
  </g>
</svg>
